<svg xmlns="http://www.w3.org/2000/svg" xmlns:xlink="http://www.w3.org/1999/xlink" width="500" zoomAndPan="magnify" viewBox="0 0 375 374.999991" height="500" preserveAspectRatio="xMidYMid meet" version="1.0"><defs><clipPath id="id1"><path d="M 112.5 112.5 L 262.5 112.5 L 262.5 262.5 L 112.5 262.5 Z M 112.5 112.5 " clip-rule="nonzero"/></clipPath></defs><rect x="-37.5" width="450" fill="#ffffff" y="-37.499999" height="449.999989" fill-opacity="1"/><rect x="-37.5" width="450" fill="#ffcebe" y="-37.499999" height="449.999989" fill-opacity="1"/><rect x="-37.5" width="450" fill="#ffffff" y="-37.499999" height="449.999989" fill-opacity="1"/><rect x="-37.5" width="450" fill="#ffcebe" y="-37.499999" height="449.999989" fill-opacity="1"/><g clip-path="url(#id1)"><path fill="#ffffff" d="M 187.5 112.5 C 146.148438 112.5 112.5 146.148438 112.5 187.5 C 112.5 228.851562 146.148438 262.5 187.5 262.5 C 228.851562 262.5 262.5 228.851562 262.5 187.5 C 262.5 146.148438 228.851562 112.5 187.5 112.5 Z M 187.5 256.25 C 149.589844 256.25 118.75 225.410156 118.75 187.5 C 118.75 149.589844 149.589844 118.75 187.5 118.75 C 225.410156 118.75 256.25 149.589844 256.25 187.5 C 256.25 225.410156 225.410156 256.25 187.5 256.25 Z M 187.5 256.25 " fill-opacity="1" fill-rule="nonzero"/></g><path fill="#ffffff" d="M 181.25 150 L 193.75 150 C 202.367188 150 209.375 157.007812 209.375 165.625 L 215.625 165.625 C 215.625 153.5625 205.808594 143.75 193.75 143.75 L 190.625 143.75 L 190.625 134.375 L 184.375 134.375 L 184.375 143.75 L 181.25 143.75 C 169.191406 143.75 159.375 153.5625 159.375 165.625 L 159.375 168.75 C 159.375 180.8125 169.191406 190.625 181.25 190.625 L 193.75 190.625 C 202.367188 190.625 209.375 197.632812 209.375 206.25 L 209.375 209.375 C 209.375 217.992188 202.367188 225 193.75 225 L 181.25 225 C 172.632812 225 165.625 217.992188 165.625 209.375 L 159.375 209.375 C 159.375 221.4375 169.191406 231.25 181.25 231.25 L 184.375 231.25 L 184.375 240.625 L 190.625 240.625 L 190.625 231.25 L 193.75 231.25 C 205.808594 231.25 215.625 221.4375 215.625 209.375 L 215.625 206.25 C 215.625 194.1875 205.808594 184.375 193.75 184.375 L 181.25 184.375 C 172.632812 184.375 165.625 177.367188 165.625 168.75 L 165.625 165.625 C 165.625 157.007812 172.632812 150 181.25 150 Z M 181.25 150 " fill-opacity="1" fill-rule="nonzero"/></svg>