<svg xmlns="http://www.w3.org/2000/svg" xmlns:xlink="http://www.w3.org/1999/xlink" width="500" zoomAndPan="magnify" viewBox="0 0 375 374.999991" height="500" preserveAspectRatio="xMidYMid meet" version="1.0"><defs><clipPath id="id1"><path d="M 120.675781 146.308594 L 254.152344 146.308594 L 254.152344 262.5 L 120.675781 262.5 Z M 120.675781 146.308594 " clip-rule="nonzero"/></clipPath><clipPath id="id2"><path d="M 182 112.5 L 214 112.5 L 214 162 L 182 162 Z M 182 112.5 " clip-rule="nonzero"/></clipPath></defs><rect x="-37.5" width="450" fill="#ffcebe" y="-37.499999" height="449.999989" fill-opacity="1"/><rect x="-37.5" width="450" fill="#ffffff" y="-37.499999" height="449.999989" fill-opacity="1"/><rect x="-37.5" width="450" fill="#ffcebe" y="-37.499999" height="449.999989" fill-opacity="1"/><g clip-path="url(#id1)"><path fill="#ffffff" d="M 186.0625 253.601562 C 183.453125 255.117188 178.601562 256.660156 173.78125 257.398438 C 169.886719 257.992188 166.140625 258.050781 163.902344 257.109375 L 163.882812 257.097656 L 163.839844 257.078125 C 136.425781 243.203125 124.9375 217.0625 125.351562 194.128906 C 125.503906 185.664062 127.28125 177.644531 130.480469 170.863281 C 133.628906 164.191406 138.148438 158.746094 143.824219 155.296875 C 154.207031 148.988281 168.691406 149.308594 186.117188 160.964844 L 187.414062 159.023438 L 186.113281 160.972656 C 186.976562 161.550781 188.085938 161.476562 188.859375 160.867188 C 206.222656 149.308594 220.648438 149.007812 231.003906 155.296875 C 236.683594 158.746094 241.195312 164.191406 244.34375 170.863281 C 247.546875 177.644531 249.324219 185.664062 249.476562 194.128906 C 249.890625 217.078125 238.386719 243.242188 210.925781 257.109375 C 208.6875 258.050781 204.941406 257.992188 201.046875 257.398438 C 196.132812 256.648438 191.183594 255.058594 188.617188 253.515625 L 188.617188 253.507812 C 187.800781 253.011719 186.796875 253.082031 186.0625 253.601562 Z M 174.476562 262.03125 C 179.285156 261.292969 184.226562 259.773438 187.414062 258.175781 C 190.601562 259.773438 195.542969 261.292969 200.351562 262.03125 C 204.910156 262.726562 209.476562 262.730469 212.59375 261.476562 C 212.699219 261.441406 212.804688 261.398438 212.910156 261.347656 L 212.90625 261.335938 C 242.277344 246.5625 254.582031 218.589844 254.140625 194.054688 C 253.976562 184.910156 252.042969 176.230469 248.570312 168.867188 C 245.042969 161.394531 239.917969 155.253906 233.417969 151.304688 C 221.816406 144.257812 206.027344 144.253906 187.414062 156.234375 C 168.800781 144.253906 153.011719 144.257812 141.410156 151.304688 C 134.910156 155.253906 129.785156 161.394531 126.257812 168.867188 C 122.785156 176.230469 120.851562 184.910156 120.6875 194.054688 C 120.25 218.53125 132.492188 246.425781 161.707031 261.226562 C 161.816406 261.296875 161.933594 261.359375 162.054688 261.410156 L 162.054688 261.402344 C 165.175781 262.734375 169.828125 262.742188 174.476562 262.03125 " fill-opacity="1" fill-rule="nonzero"/></g><g clip-path="url(#id2)"><path fill="#ffffff" d="M 210.960938 112.542969 C 212.25 112.503906 213.328125 113.515625 213.367188 114.804688 C 213.40625 116.09375 212.394531 117.171875 211.109375 117.210938 C 211.015625 117.214844 177.855469 117.902344 190.113281 158.347656 C 190.488281 159.578125 189.792969 160.882812 188.5625 161.257812 C 187.328125 161.632812 186.027344 160.933594 185.652344 159.703125 C 171.609375 113.375 210.851562 112.546875 210.960938 112.542969 " fill-opacity="1" fill-rule="nonzero"/></g><path fill="#ffffff" d="M 159.621094 121.011719 C 177.972656 122.269531 181.785156 137.761719 182.578125 144 C 176.347656 143.210938 160.875 139.390625 159.621094 121.011719 Z M 187.449219 146.503906 C 187.445312 146.285156 187.164062 116.289062 157.265625 116.246094 C 157.242188 116.242188 157.21875 116.242188 157.199219 116.242188 C 155.90625 116.242188 154.859375 117.292969 154.859375 118.585938 C 154.859375 147.1875 182.109375 148.785156 184.855469 148.871094 C 184.953125 148.882812 185.054688 148.890625 185.15625 148.886719 C 186.449219 148.863281 187.480469 147.796875 187.457031 146.503906 L 187.449219 146.503906 " fill-opacity="1" fill-rule="nonzero"/></svg>