<svg xmlns="http://www.w3.org/2000/svg" viewBox="0 0 114 40"><g fill="none" fill-rule="evenodd"><path fill="#000" fill-rule="nonzero" d="M82.243 20.277l25.236-14.123 6.213 5.644L103.166 40l-6.23-5.662 2.253-5.79-6.038-5.48-5.21 3.103-5.544-5.049 2.64 14.45-7.286 4.21-21.544-20.035 7.568-4.374 12.216 11.941-3.52-16.968 7.198-4.156 2.574 14.087zm-34.99-1.24c.312 1.352.43 2.706.347 4.049a13.82 13.82 0 0 1-2.429 7.15c-1.46 2.124-3.502 3.902-6.09 5.281-.81.436-1.989 1.071-3.52 1.87a121.118 121.118 0 0 1-3.59 1.833l-1.092.526-11.876-24.247-11.526 23.87L0 35.844l11.83-24.502 6.716 3.166 1.051-.587c.968-.544 2.394-1.288 4.26-2.268 1.883-.98 3.326-1.724 4.294-2.196 2.341-1.18 4.682-1.779 6.935-1.724 2.288.054 4.4.744 6.284 2.05 1.376.974 2.577 2.25 3.58 3.82l7.246-3.073 11.308 26.032-7.294 3.093-8.957-20.619zm-7.767 5.81c.528-1.725.3-3.558-.721-5.645-.916-1.833-2.007-2.958-3.362-3.43-1.338-.453-2.87-.236-4.647.69l-1.9.98 5.878 11.996 1.056-.545c1.954-1.016 3.168-2.34 3.696-4.047zm64.332-8.113l-4.119 2.432 2.34 2.123 1.779-4.555z"/><ellipse cx="52.512" cy="5.431" fill="#FF5076" rx="5.279" ry="5.41"/></g></svg>