<svg xmlns="http://www.w3.org/2000/svg" zoomAndPan="magnify" viewBox="0 0 375 374.999991" preserveAspectRatio="xMidYMid meet" version="1.0"><defs><clipPath id="id1"><path d="M 112.5 119.34375 L 181 119.34375 L 181 188 L 112.5 188 Z M 112.5 119.34375 " clip-rule="nonzero"/></clipPath><clipPath id="id2"><path d="M 194 132 L 262.5 132 L 262.5 202 L 194 202 Z M 194 132 " clip-rule="nonzero"/></clipPath><clipPath id="id3"><path d="M 139 146 L 235 146 L 235 255.84375 L 139 255.84375 Z M 139 146 " clip-rule="nonzero"/></clipPath></defs><rect x="-37.5" width="450" fill="#ffcebe" y="-37.499999" height="449.999989" fill-opacity="1"/><rect x="-37.5" width="450" fill="#ffffff" y="-37.499999" height="449.999989" fill-opacity="1"/><rect x="-37.5" width="450" fill="#ffcebe" y="-37.499999" height="449.999989" fill-opacity="1"/><g clip-path="url(#id1)"><path fill="#ffffff" d="M 149.507812 187.792969 C 141.097656 187.792969 132.613281 185.3125 127.078125 179.773438 C 113.964844 166.640625 112.453125 140.945312 112.453125 122.757812 C 112.453125 120.871094 113.980469 119.34375 115.859375 119.34375 C 134.023438 119.34375 159.683594 120.867188 172.796875 133.988281 C 184.359375 145.558594 182.566406 169.984375 172.796875 179.765625 C 167.707031 184.863281 158.648438 187.792969 149.507812 187.792969 Z M 119.289062 126.1875 C 119.488281 142.816406 121.320312 164.347656 131.90625 174.945312 C 140.4375 183.492188 160.6875 182.242188 167.980469 174.945312 C 175.265625 167.652344 176.511719 147.367188 167.980469 138.824219 C 157.394531 128.222656 135.890625 126.386719 119.289062 126.1875 Z M 119.289062 126.1875 " fill-opacity="1" fill-rule="nonzero"/></g><g clip-path="url(#id2)"><path fill="#ffffff" d="M 225.492188 201.285156 C 216.351562 201.285156 207.300781 198.355469 202.207031 193.265625 C 192.441406 183.484375 190.648438 159.058594 202.207031 147.488281 C 215.320312 134.359375 240.980469 132.84375 259.144531 132.84375 C 261.027344 132.84375 262.554688 134.371094 262.554688 136.257812 C 262.554688 154.445312 261.035156 180.140625 247.925781 193.273438 C 242.378906 198.8125 233.902344 201.285156 225.492188 201.285156 Z M 255.710938 139.683594 C 239.109375 139.878906 217.605469 141.714844 207.019531 152.316406 C 198.488281 160.859375 199.734375 181.144531 207.019531 188.441406 C 214.304688 195.734375 234.5625 196.984375 243.09375 188.441406 C 253.679688 177.847656 255.511719 156.316406 255.710938 139.683594 Z M 255.710938 139.683594 " fill-opacity="1" fill-rule="nonzero"/></g><g clip-path="url(#id3)"><path fill="#ffffff" d="M 184.015625 255.84375 C 182.136719 255.84375 180.609375 254.316406 180.609375 252.429688 C 180.609375 180.050781 154.101562 161.890625 144.125 155.058594 C 142.550781 153.980469 141.386719 153.140625 140.710938 152.472656 C 139.382812 151.140625 139.382812 148.976562 140.710938 147.648438 C 142.039062 146.316406 144.199219 146.316406 145.53125 147.648438 C 146.007812 148.117188 146.867188 148.671875 147.96875 149.429688 C 156.824219 155.496094 177.699219 169.792969 184.917969 216.695312 C 190.75 194.636719 203.589844 173.179688 229.730469 160.875 C 231.425781 160.082031 233.730469 160.667969 234.535156 162.382812 C 235.339844 164.089844 234.882812 165.984375 233.183594 166.792969 C 233.183594 166.792969 232.632812 167.050781 232.632812 167.058594 C 195.269531 184.636719 187.425781 223.191406 187.425781 252.4375 C 187.425781 254.316406 185.898438 255.84375 184.015625 255.84375 Z M 184.015625 255.84375 " fill-opacity="1" fill-rule="nonzero"/></g></svg>