<svg xmlns="http://www.w3.org/2000/svg"  width="500" zoomAndPan="magnify" viewBox="0 0 375 374.999991" height="500" preserveAspectRatio="xMidYMid meet" version="1.0"><defs><clipPath id="id1"><path d="M 117 112.5 L 261.9375 112.5 L 261.9375 262.5 L 117 262.5 Z M 117 112.5 " clip-rule="nonzero"/></clipPath></defs><rect x="-37.5" width="450" fill="#ffffff" y="-37.499999" height="449.999989" fill-opacity="1"/><rect x="-37.5" width="450" fill="#ffcebe" y="-37.499999" height="449.999989" fill-opacity="1"/><rect x="-37.5" width="450" fill="#ffffff" y="-37.499999" height="449.999989" fill-opacity="1"/><rect x="-37.5" width="450" fill="#ffcebe" y="-37.499999" height="449.999989" fill-opacity="1"/><g clip-path="url(#id1)"><path fill="#ffffff" d="M 156.09375 187.144531 C 160.371094 187.160156 164.425781 186.210938 168.253906 184.300781 C 169.507812 183.652344 170.636719 182.835938 171.640625 181.847656 C 179.246094 196.617188 185.511719 215.453125 186.710938 238.320312 C 164.898438 239 148.15625 248.246094 148.15625 259.964844 C 148.15625 260.285156 148.214844 260.589844 148.339844 260.886719 C 148.460938 261.183594 148.636719 261.441406 148.863281 261.667969 C 149.089844 261.894531 149.351562 262.070312 149.648438 262.191406 C 149.945312 262.3125 150.253906 262.375 150.574219 262.375 L 227.953125 262.375 C 228.273438 262.375 228.582031 262.3125 228.878906 262.191406 C 229.171875 262.070312 229.433594 261.894531 229.660156 261.667969 C 229.886719 261.441406 230.0625 261.183594 230.1875 260.886719 C 230.308594 260.589844 230.371094 260.285156 230.371094 259.964844 C 230.371094 248.199219 213.488281 238.925781 191.550781 238.316406 C 191.140625 229.96875 190.023438 221.714844 188.207031 213.554688 C 188.203125 213.519531 188.222656 213.488281 188.21875 213.449219 C 187.355469 204.296875 190.957031 195.023438 196.703125 186.3125 C 201.546875 189.851562 207.5625 191.742188 214.207031 191.742188 C 215.460938 191.738281 216.707031 191.675781 217.953125 191.546875 C 226.84375 190.648438 235.414062 186.640625 241.464844 180.554688 C 257.921875 163.996094 261.636719 134.195312 261.789062 132.933594 C 261.828125 132.617188 261.800781 132.304688 261.714844 131.996094 C 261.628906 131.6875 261.488281 131.410156 261.289062 131.160156 C 261.089844 130.90625 260.851562 130.703125 260.574219 130.546875 C 260.292969 130.390625 259.996094 130.292969 259.675781 130.253906 C 257.742188 130.019531 212.101562 124.828125 195.53125 151.058594 C 185.492188 166.941406 188.957031 178.257812 193.015625 183.046875 C 189.253906 188.667969 186.316406 194.570312 184.683594 200.601562 C 182.097656 192.664062 178.832031 185.019531 174.890625 177.660156 C 177.933594 172.433594 179.695312 164.285156 176.773438 152.617188 C 169.234375 122.535156 124.25 113.261719 122.339844 112.878906 C 122.027344 112.816406 121.710938 112.816406 121.398438 112.878906 C 121.082031 112.941406 120.792969 113.0625 120.527344 113.238281 C 120.261719 113.414062 120.039062 113.636719 119.859375 113.902344 C 119.679688 114.167969 119.558594 114.457031 119.496094 114.769531 C 119.246094 116.011719 113.449219 145.484375 123.902344 166.339844 C 129.710938 177.925781 142.804688 187.144531 156.09375 187.144531 Z M 199.621094 153.625 C 210.082031 137.074219 234.824219 134.5625 248.878906 134.5625 C 252.132812 134.5625 254.8125 134.699219 256.613281 134.824219 C 255.371094 142.203125 250.710938 164.394531 238.03125 177.15625 C 232.753906 182.464844 225.257812 185.957031 217.460938 186.746094 C 210.515625 187.445312 204.253906 185.890625 199.46875 182.367188 C 216.242188 159.882812 245.691406 142.101562 246.121094 141.847656 C 246.390625 141.679688 246.621094 141.46875 246.808594 141.214844 C 247 140.957031 247.128906 140.675781 247.207031 140.367188 C 247.285156 140.058594 247.296875 139.746094 247.25 139.429688 C 247.203125 139.117188 247.097656 138.824219 246.933594 138.550781 C 246.773438 138.277344 246.5625 138.046875 246.308594 137.855469 C 246.050781 137.664062 245.769531 137.53125 245.460938 137.453125 C 245.152344 137.371094 244.839844 137.355469 244.523438 137.398438 C 244.210938 137.441406 243.914062 137.546875 243.640625 137.707031 C 241.871094 138.761719 213.132812 156.113281 195.953125 178.941406 C 193.234375 174.8125 191.726562 166.121094 199.621094 153.625 Z M 225.148438 257.550781 L 153.378906 257.550781 C 155.980469 249.492188 171.355469 243.082031 189.261719 243.082031 C 207.167969 243.082031 222.546875 249.492188 225.148438 257.550781 Z M 123.820312 118.179688 C 133.125 120.519531 166.222656 130.414062 172.082031 153.785156 C 174.183594 162.171875 173.621094 168.304688 172.027344 172.578125 C 158.523438 149.675781 143.011719 138.027344 142.746094 137.832031 C 142.484375 137.640625 142.199219 137.507812 141.890625 137.433594 C 141.578125 137.355469 141.265625 137.34375 140.945312 137.390625 C 140.628906 137.4375 140.335938 137.546875 140.058594 137.710938 C 139.785156 137.878906 139.554688 138.089844 139.363281 138.347656 C 139.175781 138.605469 139.039062 138.886719 138.964844 139.199219 C 138.886719 139.511719 138.875 139.824219 138.921875 140.140625 C 138.96875 140.457031 139.078125 140.75 139.242188 141.023438 C 139.410156 141.296875 139.621094 141.527344 139.878906 141.71875 C 140.148438 141.914062 156.023438 153.859375 169.261719 177.40625 C 168.375 178.476562 167.320312 179.335938 166.089844 179.988281 C 152.378906 186.824219 134.792969 177.277344 128.230469 164.179688 C 120.183594 148.132812 122.695312 125.582031 123.820312 118.179688 Z M 123.820312 118.179688 " fill-opacity="1" fill-rule="nonzero"/></g></svg>