<svg width="92" height="52" viewBox="0 0 92 52" fill="none" xmlns="http://www.w3.org/2000/svg">
<path fill-rule="evenodd" clip-rule="evenodd" d="M54.6971 0C52.7698 0 50.8865 0.542286 49.2552 1.57011C47.5545 2.64207 45.2681 2.64207 43.5612 1.57011C41.9299 0.542286 40.0466 0 38.1192 0C32.4568 0 27.8525 4.60944 27.8525 10.2782C27.8525 15.947 32.4568 20.5565 38.1192 20.5565C40.0466 20.5565 41.9299 20.0142 43.5675 18.9863C45.2681 17.9144 47.5545 17.9144 49.2552 18.9863C50.8865 20.0142 52.7698 20.5565 54.6971 20.5565C60.3596 20.5565 64.9639 15.947 64.9639 10.2782C64.9702 4.60944 60.3596 0 54.6971 0ZM61.8397 10.2782C61.8397 14.2193 58.6401 17.4288 54.7034 17.4288C53.3618 17.4288 52.058 17.0505 50.9243 16.3443C49.5701 15.493 48.008 15.039 46.4082 15.039C44.8083 15.039 43.2526 15.493 41.8984 16.3443C40.7646 17.0568 39.4608 17.4352 38.1192 17.4352C34.1826 17.4352 30.9829 14.2256 30.9829 10.2845C30.9829 6.34349 34.1826 3.13391 38.1192 3.13391C39.4608 3.13391 40.7646 3.51225 41.8984 4.21849C44.5942 5.92101 48.2222 5.92101 50.918 4.21849C52.0517 3.50595 53.3555 3.12761 54.6971 3.12761C58.6338 3.12761 61.8397 6.33719 61.8397 10.2782ZM20.2248 37.7075C20.2248 40.009 21.8624 41.9764 24.6527 41.9764C26.6178 41.9764 27.9657 40.9927 28.457 39.6748L31.2158 40.9864C29.9057 43.288 27.6067 44.9275 24.4889 44.9275C20.3885 44.9275 16.9432 41.6422 16.9432 36.8814C16.9432 32.1207 20.2248 28.8354 24.4889 28.8354C28.4255 28.8354 31.7071 31.9567 31.7071 36.7175V37.7012H20.2248V37.7075ZM20.3885 34.8132H28.2618C28.098 33.1043 26.4604 31.7928 24.4889 31.7928C22.1962 31.7928 20.8798 33.1106 20.3885 34.8132ZM45.8979 44.6059H48.8519V29.157H45.8979L45.4947 30.7271L45.2428 30.4749C44.2602 29.4912 42.6163 28.8354 40.9786 28.8354C36.7145 28.8354 33.1054 32.1207 33.1054 36.8814C33.1054 41.6422 36.7145 44.9275 40.9786 44.9275C42.6163 44.9275 44.2602 44.2717 45.2428 43.288L45.4947 43.0358L45.8979 44.6059ZM36.3492 36.8814C36.3492 34.0943 38.0246 31.7928 41.1424 31.7928C43.9327 31.7928 45.8979 34.0943 45.8979 36.8814C45.8979 39.6685 43.9327 41.9701 41.1424 41.9701C38.0246 41.9701 36.3492 39.6685 36.3492 36.8814ZM50.9932 29.1633H53.9473L54.3504 30.8217L54.6023 30.4749C55.2574 29.4912 56.9013 28.8354 58.2114 28.8354C62.148 28.8354 64.447 31.4649 64.447 35.078V44.6059H61.1655V35.078C61.0647 32.9782 60.0506 31.7928 57.8839 31.7928C55.9502 31.7928 54.3378 33.3692 54.2748 35.2735V44.5996H50.9932V29.1633ZM77.0886 44.6059H80.0426V29.1634H76.7611V38.5273C76.6603 40.4316 75.0541 41.9765 73.152 41.9765C70.9538 41.9765 69.9334 40.791 69.8704 38.6912V29.1634H66.5888V38.6912C66.5888 42.3044 68.8878 44.9338 72.8244 44.9338C74.1345 44.9338 75.7785 44.2781 76.4335 43.2944L76.6855 42.9034L77.0886 44.6059ZM81.6612 29.1634H84.6467V25.8782L87.2418 22.5929H87.8653V29.1634H91.1784V32.1208H87.8653V40.0028C87.8653 40.7911 88.3062 41.3712 88.9865 41.5666C89.251 41.6423 89.5281 41.6423 89.7927 41.5982L91.5059 41.3144V44.2718L90.4981 44.4546C89.6541 44.606 88.7912 44.6123 87.9598 44.4168C85.7994 43.9124 84.6467 42.3864 84.6467 40.0028V32.1208H81.6612V29.1634ZM2.94774 29.1825H0V51.5613H3.24378L3.23748 42.9351L3.60279 43.2945C4.58538 44.2782 6.2545 44.934 7.86064 44.934C12.1248 44.934 15.7276 41.6551 15.7276 36.8943C15.7276 32.1335 12.1185 28.8546 7.86064 28.8546C6.22301 28.8546 4.58538 29.5104 3.60279 30.4941L3.31936 30.822L2.94774 29.1825ZM12.4523 36.9006C12.4523 39.6877 10.8147 41.983 7.70318 41.983C4.9192 41.983 2.95404 39.6814 2.95404 36.9006C2.95404 34.1135 4.9192 31.8182 7.70318 31.8182C10.8147 31.8182 12.4523 34.1135 12.4523 36.9006Z" fill="black"/>
</svg>
