<svg xmlns="http://www.w3.org/2000/svg" xmlns:xlink="http://www.w3.org/1999/xlink" width="500" zoomAndPan="magnify" viewBox="0 0 375 374.999991" height="500" preserveAspectRatio="xMidYMid meet" version="1.0"><defs><clipPath id="id1"><path d="M 115 126.09375 L 260 126.09375 L 260 249.09375 L 115 249.09375 Z M 115 126.09375 " clip-rule="nonzero"/></clipPath></defs><rect x="-37.5" width="450" fill="#ffcebe" y="-37.499999" height="449.999989" fill-opacity="1"/><rect x="-37.5" width="450" fill="#ffffff" y="-37.499999" height="449.999989" fill-opacity="1"/><rect x="-37.5" width="450" fill="#ffcebe" y="-37.499999" height="449.999989" fill-opacity="1"/><g clip-path="url(#id1)"><path fill="#ffffff" d="M 187.5 249.132812 C 186.78125 249.132812 186.054688 248.902344 185.445312 248.445312 L 182.835938 246.484375 C 167.644531 235.109375 136.03125 211.433594 121.367188 184.265625 C 112.484375 167.652344 114.402344 150.152344 126.5 137.425781 C 133.425781 130.183594 142.621094 126.199219 152.410156 126.199219 C 152.417969 126.199219 152.425781 126.199219 152.433594 126.199219 C 162.210938 126.203125 171.394531 130.1875 178.285156 137.425781 L 187.511719 147.09375 L 196.707031 137.425781 C 203.605469 130.1875 212.789062 126.203125 222.566406 126.199219 C 222.574219 126.199219 222.582031 126.199219 222.589844 126.199219 C 232.378906 126.199219 241.574219 130.183594 248.492188 137.421875 C 260.597656 150.152344 262.515625 167.652344 253.636719 184.257812 C 239.011719 211.40625 207.398438 235.082031 192.203125 246.453125 L 189.546875 248.445312 C 188.945312 248.902344 188.21875 249.132812 187.5 249.132812 Z M 152.410156 133.027344 C 144.503906 133.027344 137.054688 136.265625 131.433594 142.144531 C 121.472656 152.617188 119.957031 167.152344 127.371094 181.027344 C 141.316406 206.867188 172.121094 229.929688 186.917969 241.015625 L 187.5 241.453125 L 188.125 240.984375 C 202.925781 229.902344 233.722656 206.839844 247.628906 181.019531 C 255.042969 167.152344 253.527344 152.617188 243.558594 142.136719 C 237.945312 136.265625 230.503906 133.027344 222.589844 133.027344 C 222.582031 133.027344 222.578125 133.027344 222.574219 133.027344 C 214.671875 133.035156 207.238281 136.269531 201.644531 142.144531 L 189.984375 154.394531 C 189.339844 155.078125 188.449219 155.457031 187.515625 155.457031 C 186.585938 155.457031 185.691406 155.078125 185.050781 154.398438 L 173.355469 142.144531 C 167.761719 136.269531 160.328125 133.035156 152.425781 133.027344 C 152.421875 133.027344 152.417969 133.027344 152.410156 133.027344 " fill-opacity="1" fill-rule="nonzero"/></g></svg>